# xmcd
#
# Track frame offsets:
# 150
# 23510
# 36932
# 54780
# 61882
# 77682
# 101785
# 115837
# 151237
# 164770
# 177867
# 199780
#
# Disc length: 2794 seconds
#
#
# Revision: 1
# Processed by: cddbd v1.5.2PL0 Copyright (c) Steve Scherf et al.
# Submitted via: FreeRIP 2.951 
#
DISCID=910ae80c
DTITLE=Hobo - Imák és Mantrák-Mózsi Ferenc
DYEAR=1989
DGENRE=Blues
TTITLE0=Ne paráználkodj! (7. parancsolat)
TTITLE1=Ne kívánd felebarátod házát, feleségét... (10. parancsolat)
TTITLE2=Nem kaphatok jobb tanácsot... (8. és 9. mantra)
TTITLE3=Tanúsítom... (9. parancsolat)
TTITLE4=Ne csinálj magadnak istenszobrot... (2. parancsolat)
TTITLE5=Szellemi szellõztetés (3. mantra)
TTITLE6=Most imádjunk, vagy ne? (5. mantra)
TTITLE7=Nem csak gondolatban tisztelgünk... (1. parancsolat)
TTITLE8=Ne legyen idegen istened rajtam kívül! (6. mantra)
TTITLE9=Ha a világon mindenki Bartók volna (6. parancsolat)
TTITLE10=Ne ölj! 6. parancsolat)
TTITLE11=Isten meditál (11. mantra)
EXTD=YEAR: 1989\nby Lajos
EXTT0=
EXTT1=
EXTT2=
EXTT3=
EXTT4=
EXTT5=
EXTT6=
EXTT7=
EXTT8=
EXTT9=
EXTT10=
EXTT11=
PLAYORDER=
